<?xml version="1.0" encoding="UTF-8"?>
<svg id="Layer_2" data-name="Layer 2" xmlns="http://www.w3.org/2000/svg" version="1.1" viewBox="0 0 830.68 157.66">
  <defs>
    <style>
      .cls-1 {
        fill: #fff;
        stroke-width: 0px;
      }
    </style>
  </defs>
  <path class="cls-1" d="M511.87,155.32h89.85v-19.96h-59.32c8.03-32.68,58.14-39.75,58.14-76.34,0-19.58-13.51-33.87-41.31-33.87-17.61,0-32.49,5.29-43.06,10.38l6.26,18.2c9.39-4.5,20.17-8.82,33.28-8.82,10.38,0,19.96,4.5,19.96,16.45,0,27.21-58.54,29.17-63.83,93.97"/>
  <path class="cls-1" d="M780.85,127.99c-27.48,0-49.83-22.35-49.83-49.83s22.35-49.83,49.83-49.83,49.83,22.35,49.83,49.83-22.35,49.83-49.83,49.83M780.85,37.38c-22.49,0-40.78,18.31-40.78,40.78s18.29,40.78,40.78,40.78,40.78-18.29,40.78-40.78-18.29-40.78-40.78-40.78"/>
  <polygon class="cls-1" points="809.22 78.12 784.34 78.12 784.34 53.23 777.64 53.23 777.64 84.82 809.22 84.82 809.22 78.12"/>
  <path class="cls-1" d="M.02,7.63h43.28c31.61,0,45.96,18.16,45.96,37.44,0,12.79-6.28,24.67-17.95,30.49v.44c17.27,4.25,27.8,18.39,27.8,35.64,0,22.87-17.48,43.72-51.8,43.72H0V7.61s.02.02.02.02ZM39.7,69.3c15.03,0,22.87-8.29,22.87-19.72s-6.96-19.72-23.09-19.72h-12.56v39.47h12.79l-.02-.02h0ZM44.19,133.21c17.93,0,27.59-6.51,27.59-21.52,0-12.56-9.64-20.19-24.67-20.19h-20.19v41.71h17.27Z"/>
  <path class="cls-1" d="M119.53,16.15c0-8.96,6.96-16.15,16.36-16.15s16.6,6.96,16.6,16.15-7.19,15.92-16.6,15.92-16.36-6.96-16.36-15.92M122.45,49.34h26.91v106.07h-26.91s0-106.07,0-106.07Z"/>
  <path class="cls-1" d="M185.24,129.17v-58.96h-19.07v-20.85h19.07v-24.67l26.68-7.84v32.52h32.07l-6.51,20.85h-25.56v52.47c0,9.87,3.36,13.45,10.32,13.45,6.28,0,12.11-2.45,16.15-5.16l8.08,18.39c-7.63,5.16-20.4,8.29-30.95,8.29-18.84,0-30.27-10.76-30.27-28.48"/>
  <path class="cls-1" d="M261.47,49.34h22.64l2.92,11.88c9.64-9.64,18.39-14.57,29.15-14.57,4.93,0,10.76,1.33,15.03,4.25l-9.41,22.64c-4.71-2.92-8.96-3.59-12.11-3.59-6.96,0-12.79,2.92-21.52,10.55v74.88h-26.68V49.32l-.02.02h0Z"/>
  <path class="cls-1" d="M341.07,16.15c0-8.96,6.96-16.15,16.36-16.15s16.6,6.96,16.6,16.15-7.17,15.92-16.6,15.92-16.36-6.96-16.36-15.92M343.99,49.34h26.91v106.07h-26.91V49.34Z"/>
  <polygon class="cls-1" points="425.38 102.05 387.03 49.34 415.07 49.34 439.95 83.87 465.06 49.34 492.86 49.34 454.09 102.05 493.33 155.41 465.3 155.41 439.74 119.98 413.71 155.41 385.7 155.41 425.38 102.05"/>
  <path class="cls-1" d="M685.12,104.61V25.33h-16.83l-63.83,82.81v15.67h57.55v31.52h23.11v-31.52h19.18v-19.2h-19.18,0ZM662.02,86.21v18.39h-15.26c-4.69,0-13.32.38-16.24.38l32.68-44.04c-.19,3.72-1.16,14.88-1.16,25.24"/>
</svg>